<svg width="233" height="228" viewBox="0 0 233 228" fill="none" xmlns="http://www.w3.org/2000/svg">
<mask id="path-1-inside-1_434_99" fill="white">
<path fill-rule="evenodd" clip-rule="evenodd" d="M129 26V50H99V26C99 16.6112 105.716 9 114 9C122.284 9 129 16.6112 129 26Z"/>
</mask>
<path fill-rule="evenodd" clip-rule="evenodd" d="M129 26V50H99V26C99 16.6112 105.716 9 114 9C122.284 9 129 16.6112 129 26Z" fill="#F7DEB8"/>
<path d="M129 50V53H132V50H129ZM99 50H96V53H99V50ZM126 26V50H132V26H126ZM129 47H99V53H129V47ZM102 50V26H96V50H102ZM102 26C102 17.9041 107.714 12 114 12V6C103.717 6 96 15.3182 96 26H102ZM114 12C120.286 12 126 17.9041 126 26H132C132 15.3182 124.283 6 114 6V12Z" fill="black" mask="url(#path-1-inside-1_434_99)"/>
<rect x="13.5" y="111.5" width="206" height="115" fill="#FCF6ED" stroke="black" stroke-width="3"/>
<mask id="path-4-inside-2_434_99" fill="white">
<path fill-rule="evenodd" clip-rule="evenodd" d="M19.9996 91L0.0810547 118H19.9996H39.9182H191.081H211H230.918L211 91H19.9996Z"/>
</mask>
<path fill-rule="evenodd" clip-rule="evenodd" d="M19.9996 91L0.0810547 118H19.9996H39.9182H191.081H211H230.918L211 91H19.9996Z" fill="#97C9F9"/>
<path d="M0.0810547 118L-2.33309 116.219L-5.86014 121H0.0810547V118ZM19.9996 91V88H18.4848L17.5855 89.219L19.9996 91ZM230.918 118V121H236.859L233.332 116.219L230.918 118ZM211 91L213.414 89.219L212.514 88H211V91ZM2.4952 119.781L22.4138 92.781L17.5855 89.219L-2.33309 116.219L2.4952 119.781ZM19.9996 115H0.0810547V121H19.9996V115ZM19.9996 121H39.9182V115H19.9996V121ZM39.9182 121H191.081V115H39.9182V121ZM191.081 121H211V115H191.081V121ZM211 121H230.918V115H211V121ZM233.332 116.219L213.414 89.219L208.585 92.781L228.504 119.781L233.332 116.219ZM211 88H19.9996V94H211V88Z" fill="black" mask="url(#path-4-inside-2_434_99)"/>
<path d="M64.551 103.25L115 69.7998L165.449 103.25H64.551Z" fill="#FDF5CB" stroke="black" stroke-width="3"/>
<rect x="47.5" y="103.5" width="134" height="121" fill="#FCF6ED" stroke="black" stroke-width="3"/>
<rect x="95.5" y="46.5" width="39" height="24" fill="#D9D9D9" stroke="black" stroke-width="3"/>
<path d="M43 211.5H188C191.59 211.5 194.5 214.41 194.5 218V224.5H36.5V218C36.5 214.41 39.4101 211.5 43 211.5Z" fill="#D9D9D9" stroke="black" stroke-width="3"/>
<mask id="path-10-inside-3_434_99" fill="white">
<path fill-rule="evenodd" clip-rule="evenodd" d="M114.535 75.0616L46.19 114.521L38 100.335L114.789 56.0014L114.79 55.9997L114.79 56.0002L114.842 55.9707L114.893 56.0593L191.196 100.113L182.879 114.52L114.535 75.0616Z"/>
</mask>
<path fill-rule="evenodd" clip-rule="evenodd" d="M114.535 75.0616L46.19 114.521L38 100.335L114.789 56.0014L114.79 55.9997L114.79 56.0002L114.842 55.9707L114.893 56.0593L191.196 100.113L182.879 114.52L114.535 75.0616Z" fill="#97C9F9"/>
<path d="M46.19 114.521L43.5919 116.021L45.0919 118.619L47.69 117.119L46.19 114.521ZM114.535 75.0616L116.035 72.4635L114.535 71.5974L113.035 72.4635L114.535 75.0616ZM38 100.335L36.5 97.7372L33.9019 99.2372L35.4019 101.835L38 100.335ZM114.789 56.0014L116.289 58.5995L116.983 58.1986L117.385 57.5047L114.789 56.0014ZM114.79 55.9997L116.286 53.3997L113.693 51.9069L112.193 54.4963L114.79 55.9997ZM114.79 56.0002L113.294 58.6003L114.793 59.4631L116.291 58.5983L114.79 56.0002ZM114.842 55.9707L117.44 54.4708L115.94 51.8725L113.342 53.3727L114.842 55.9707ZM114.893 56.0593L112.295 57.5593L112.697 58.2555L113.393 58.6574L114.893 56.0593ZM191.196 100.113L193.794 101.613L195.294 99.015L192.696 97.515L191.196 100.113ZM182.879 114.52L181.379 117.118L183.977 118.618L185.477 116.02L182.879 114.52ZM47.69 117.119L116.035 77.6596L113.035 72.4635L44.69 111.923L47.69 117.119ZM35.4019 101.835L43.5919 116.021L48.7881 113.021L40.5981 98.8352L35.4019 101.835ZM113.289 53.4033L36.5 97.7372L39.5 102.933L116.289 58.5995L113.289 53.4033ZM112.193 54.4963L112.192 54.498L117.385 57.5047L117.386 57.503L112.193 54.4963ZM116.287 53.4002L116.286 53.3997L113.293 58.5997L113.294 58.6003L116.287 53.4002ZM113.342 53.3727L113.29 53.4022L116.291 58.5983L116.342 58.5687L113.342 53.3727ZM117.491 54.5594L117.44 54.4708L112.244 57.4706L112.295 57.5593L117.491 54.5594ZM192.696 97.515L116.393 53.4612L113.393 58.6574L189.696 102.711L192.696 97.515ZM185.477 116.02L193.794 101.613L188.598 98.6131L180.281 113.02L185.477 116.02ZM113.035 77.6596L181.379 117.118L184.379 111.921L116.035 72.4635L113.035 77.6596Z" fill="black" mask="url(#path-10-inside-3_434_99)"/>
<line y1="226.5" x2="233" y2="226.5" stroke="black" stroke-width="3"/>
<line x1="94" y1="25.5" x2="136" y2="25.5" stroke="black" stroke-width="3"/>
<line x1="114" y1="-6.55671e-08" x2="114" y2="12" stroke="black" stroke-width="3"/>
<line x1="108" y1="89.5" x2="120" y2="89.5" stroke="black" stroke-width="3"/>
<rect x="72.5" y="103.5" width="18" height="108" fill="#F6E2C4" stroke="black" stroke-width="3"/>
<rect x="105.5" y="103.5" width="18" height="108" fill="#F6E2C4" stroke="black" stroke-width="3"/>
<rect x="138.5" y="103.5" width="18" height="108" fill="#F6E2C4" stroke="black" stroke-width="3"/>
<path d="M109 172.5H120C121.933 172.5 123.5 174.067 123.5 176V211.5H105.5V176C105.5 174.067 107.067 172.5 109 172.5Z" fill="#D9D9D9" stroke="black" stroke-width="3"/>
<line x1="20" y1="138.5" x2="27" y2="138.5" stroke="black" stroke-width="3"/>
<line x1="32" y1="138.5" x2="39" y2="138.5" stroke="black" stroke-width="3"/>
<line x1="20" y1="154.5" x2="27" y2="154.5" stroke="black" stroke-width="3"/>
<line x1="32" y1="154.5" x2="39" y2="154.5" stroke="black" stroke-width="3"/>
<line x1="20" y1="170.5" x2="27" y2="170.5" stroke="black" stroke-width="3"/>
<line x1="32" y1="170.5" x2="39" y2="170.5" stroke="black" stroke-width="3"/>
<line x1="20" y1="186.5" x2="27" y2="186.5" stroke="black" stroke-width="3"/>
<line x1="32" y1="186.5" x2="39" y2="186.5" stroke="black" stroke-width="3"/>
<line x1="190" y1="138.5" x2="197" y2="138.5" stroke="black" stroke-width="3"/>
<line x1="202" y1="138.5" x2="209" y2="138.5" stroke="black" stroke-width="3"/>
<line x1="190" y1="154.5" x2="197" y2="154.5" stroke="black" stroke-width="3"/>
<line x1="202" y1="154.5" x2="209" y2="154.5" stroke="black" stroke-width="3"/>
<line x1="190" y1="170.5" x2="197" y2="170.5" stroke="black" stroke-width="3"/>
<line x1="202" y1="170.5" x2="209" y2="170.5" stroke="black" stroke-width="3"/>
<line x1="190" y1="186.5" x2="197" y2="186.5" stroke="black" stroke-width="3"/>
<line x1="202" y1="186.5" x2="209" y2="186.5" stroke="black" stroke-width="3"/>
</svg>
