<svg width="617" height="613" viewBox="0 0 617 613" fill="none" xmlns="http://www.w3.org/2000/svg">
<ellipse cx="308.5" cy="306.5" rx="308.5" ry="306.5" fill="#112B68"/>
<circle cx="308" cy="306" r="289" fill="white"/>
<g clip-path="url(#clip0_368_31)">
<path d="M478.826 242L471.587 276.277L505.604 302.408L458.636 339.959L448.937 387L562 301.107L478.826 242Z" fill="#FFCC10"/>
<path d="M117.534 319.987C114.96 327.237 111.053 328.535 106.761 328.516C102.991 328.516 101.335 327.291 99.5374 325.372L86 335.304C91.7805 340.055 98.3113 342.085 105.977 342.085C113.547 342.085 118.619 340.799 123.132 338.086C130.397 333.759 132.949 328.516 135.154 320.342C137.945 309.982 144.464 277.033 144.464 277.033H127.031C127.031 277.033 120.002 313.073 117.53 319.984L117.534 319.987ZM343.855 277.38L314.255 339.043H333.509L357.564 286.08L359.772 339.043H379.056L374.913 277.377H343.851L343.855 277.38ZM146.144 339.04H163.577L176.573 277.033H159.133L146.147 339.04H146.144ZM223.004 308.204L202.841 277.029H191.588L178.607 339.043H196.028L202.563 307.838L224.634 339.04H233.986L246.972 277.029H229.543L223.004 308.204ZM300.863 277.029L295.893 300.878H274.603L279.603 277.029H262.162L249.177 339.036H266.625L271.735 314.477H293.03L287.885 339.04H305.318L318.303 277.029H300.863ZM461.507 277.029H440.003L413.282 298.982L417.867 277.029H400.434L387.449 339.036H404.867L410.64 311.623L430.491 339.04H452.935L427.193 304.682L461.507 277.029Z" fill="#0A2B6D"/>
</g>
<defs>
<clipPath id="clip0_368_31">
<rect width="476" height="145" fill="white" transform="translate(86 242)"/>
</clipPath>
</defs>
</svg>
