<svg width="120" height="120" viewBox="0 0 120 120" fill="none" xmlns="http://www.w3.org/2000/svg">
<circle cx="59.5147" cy="59.5147" r="59.5147" fill="white"/>
<path d="M54.3883 69.7273H66.9337L73.2406 77.8409L79.4451 85.0682L91.1383 99.7273H77.3656L69.3201 89.8409L65.1951 83.9773L54.3883 69.7273ZM92.1951 59.0909C92.1951 66.7045 90.7519 73.1818 87.8656 78.5227C85.0019 83.8636 81.0928 87.9432 76.1383 90.7614C71.2065 93.5568 65.661 94.9545 59.5019 94.9545C53.2974 94.9545 47.7292 93.5455 42.7974 90.7273C37.8656 87.9091 33.9678 83.8295 31.1042 78.4886C28.2406 73.1477 26.8087 66.6818 26.8087 59.0909C26.8087 51.4773 28.2406 45 31.1042 39.6591C33.9678 34.3182 37.8656 30.25 42.7974 27.4545C47.7292 24.6364 53.2974 23.2273 59.5019 23.2273C65.661 23.2273 71.2065 24.6364 76.1383 27.4545C81.0928 30.25 85.0019 34.3182 87.8656 39.6591C90.7519 45 92.1951 51.4773 92.1951 59.0909ZM77.2292 59.0909C77.2292 54.1591 76.4906 50 75.0133 46.6136C73.5587 43.2273 71.5019 40.6591 68.8428 38.9091C66.1837 37.1591 63.0701 36.2841 59.5019 36.2841C55.9337 36.2841 52.8201 37.1591 50.161 38.9091C47.5019 40.6591 45.4337 43.2273 43.9565 46.6136C42.5019 50 41.7746 54.1591 41.7746 59.0909C41.7746 64.0227 42.5019 68.1818 43.9565 71.5682C45.4337 74.9545 47.5019 77.5227 50.161 79.2727C52.8201 81.0227 55.9337 81.8977 59.5019 81.8977C63.0701 81.8977 66.1837 81.0227 68.8428 79.2727C71.5019 77.5227 73.5587 74.9545 75.0133 71.5682C76.4906 68.1818 77.2292 64.0227 77.2292 59.0909Z" fill="#0009FF"/>
</svg>
